<svg width="32" height="32" viewBox="0 0 32 32" fill="none" xmlns="http://www.w3.org/2000/svg">
<path fill-rule="evenodd" clip-rule="evenodd" d="M9.21967 9.22131C9.51256 8.92842 9.98744 8.92842 10.2803 9.22131L16.2906 15.2315L22.3024 9.21967C22.5953 8.92678 23.0702 8.92678 23.3631 9.21967C23.656 9.51256 23.656 9.98744 23.3631 10.2803L17.3512 16.2922L23.3618 22.3028C23.6547 22.5957 23.6547 23.0706 23.3618 23.3634C23.0689 23.6563 22.594 23.6563 22.3011 23.3634L16.2906 17.3529L10.2816 23.3618C9.98873 23.6547 9.51386 23.6547 9.22096 23.3618C8.92807 23.0689 8.92807 22.594 9.22096 22.3011L15.2299 16.2922L9.21967 10.282C8.92678 9.98908 8.92678 9.5142 9.21967 9.22131Z" fill="#18191C"/>
<path d="M10.2803 9.22131L10.0682 9.43344L10.0682 9.43344L10.2803 9.22131ZM16.2906 15.2315L16.0784 15.4437L16.2906 15.6558L16.5027 15.4437L16.2906 15.2315ZM22.3024 9.21967L22.0903 9.00754L22.3024 9.21967ZM23.3631 10.2803L23.5752 10.4925L23.3631 10.2803ZM17.3512 16.2922L17.1391 16.0801L16.927 16.2922L17.1391 16.5043L17.3512 16.2922ZM22.3011 23.3634L22.089 23.5756L22.089 23.5756L22.3011 23.3634ZM16.2906 17.3529L16.5027 17.1407L16.2906 16.9286L16.0784 17.1407L16.2906 17.3529ZM10.2816 23.3618L10.0695 23.1497L10.0695 23.1497L10.2816 23.3618ZM9.22096 22.3011L9.00883 22.089L9.00883 22.089L9.22096 22.3011ZM15.2299 16.2922L15.442 16.5043L15.6542 16.2922L15.442 16.0801L15.2299 16.2922ZM9.21967 10.282L9.4318 10.0698L9.21967 10.282ZM10.4925 9.00918C10.0824 8.59913 9.41759 8.59913 9.00754 9.00918L9.4318 9.43344C9.60754 9.25771 9.89246 9.25771 10.0682 9.43344L10.4925 9.00918ZM16.5027 15.0194L10.4925 9.00918L10.0682 9.43344L16.0784 15.4437L16.5027 15.0194ZM22.0903 9.00754L16.0784 15.0194L16.5027 15.4437L22.5146 9.4318L22.0903 9.00754ZM23.5752 9.00754C23.1652 8.59749 22.5004 8.59749 22.0903 9.00754L22.5146 9.4318C22.6903 9.25607 22.9752 9.25607 23.151 9.4318L23.5752 9.00754ZM23.5752 10.4925C23.9853 10.0824 23.9853 9.41759 23.5752 9.00754L23.151 9.4318C23.3267 9.60754 23.3267 9.89246 23.151 10.0682L23.5752 10.4925ZM17.5634 16.5043L23.5752 10.4925L23.151 10.0682L17.1391 16.0801L17.5634 16.5043ZM23.5739 22.0907L17.5634 16.0801L17.1391 16.5043L23.1497 22.5149L23.5739 22.0907ZM23.5739 23.5756C23.984 23.1655 23.984 22.5007 23.5739 22.0907L23.1497 22.5149C23.3254 22.6907 23.3254 22.9756 23.1497 23.1513L23.5739 23.5756ZM22.089 23.5756C22.4991 23.9856 23.1639 23.9856 23.5739 23.5756L23.1497 23.1513C22.9739 23.327 22.689 23.327 22.5133 23.1513L22.089 23.5756ZM16.0784 17.565L22.089 23.5756L22.5133 23.1513L16.5027 17.1407L16.0784 17.565ZM10.4938 23.5739L16.5027 17.565L16.0784 17.1407L10.0695 23.1497L10.4938 23.5739ZM9.00883 23.5739C9.41888 23.984 10.0837 23.984 10.4938 23.5739L10.0695 23.1497C9.89376 23.3254 9.60883 23.3254 9.4331 23.1497L9.00883 23.5739ZM9.00883 22.089C8.59878 22.4991 8.59878 23.1639 9.00883 23.5739L9.4331 23.1497C9.25736 22.9739 9.25736 22.689 9.4331 22.5133L9.00883 22.089ZM15.0178 16.0801L9.00883 22.089L9.4331 22.5133L15.442 16.5043L15.0178 16.0801ZM9.00754 10.4941L15.0178 16.5043L15.442 16.0801L9.4318 10.0698L9.00754 10.4941ZM9.00754 9.00918C8.59749 9.41923 8.59749 10.0841 9.00754 10.4941L9.4318 10.0698C9.25607 9.8941 9.25607 9.60918 9.4318 9.43344L9.00754 9.00918Z" fill="#18191C"/>
</svg>